<?xml version="1.0" encoding="utf-8" standalone="no"?>
<!DOCTYPE svg PUBLIC "-//W3C//DTD SVG 1.1//EN"
  "http://www.w3.org/Graphics/SVG/1.1/DTD/svg11.dtd">
<svg xmlns:xlink="http://www.w3.org/1999/xlink" width="965.610156pt" height="423.462812pt" viewBox="0 0 965.610156 423.462812" xmlns="http://www.w3.org/2000/svg" version="1.1">
 <metadata>
  <rdf:RDF xmlns:dc="http://purl.org/dc/elements/1.1/" xmlns:cc="http://creativecommons.org/ns#" xmlns:rdf="http://www.w3.org/1999/02/22-rdf-syntax-ns#">
   <cc:Work>
    <dc:type rdf:resource="http://purl.org/dc/dcmitype/StillImage"/>
    <dc:date>2024-03-28T14:48:14.709729</dc:date>
    <dc:format>image/svg+xml</dc:format>
    <dc:creator>
     <cc:Agent>
      <dc:title>Matplotlib v3.7.1, https://matplotlib.org/</dc:title>
     </cc:Agent>
    </dc:creator>
   </cc:Work>
  </rdf:RDF>
 </metadata>
 <defs>
  <style type="text/css">*{stroke-linejoin: round; stroke-linecap: butt}</style>
 </defs>
 <g id="figure_1">
  <g id="patch_1">
   <path d="M 0 423.462812 
L 965.610156 423.462812 
L 965.610156 0 
L 0 0 
z
" style="fill: #ffffff"/>
  </g>
  <g id="axes_1">
   <g id="patch_2">
    <path d="M 177.210156 395.28 
L 958.410156 395.28 
L 958.410156 7.2 
L 177.210156 7.2 
z
" style="fill: #ffffff"/>
   </g>
   <g id="matplotlib.axis_1">
    <g id="xtick_1">
     <g id="line2d_1">
      <defs>
       <path id="m088bf192bb" d="M 0 0 
L 0 3.5 
" style="stroke: #000000; stroke-width: 0.8"/>
      </defs>
      <g>
       <use xlink:href="#m088bf192bb" x="221.658725" y="395.28" style="stroke: #000000; stroke-width: 0.8"/>
      </g>
     </g>
     <g id="text_1">
      <!-- −1.0 -->
      <g transform="translate(206.853256 413.150312) scale(0.15 -0.15)">
       <defs>
        <path id="LiberationSans-2212" d="M 316 1900 
L 316 2356 
L 3425 2356 
L 3425 1900 
L 316 1900 
z
" transform="scale(0.015625)"/>
        <path id="LiberationSans-31" d="M 488 0 
L 488 478 
L 1609 478 
L 1609 3866 
L 616 3156 
L 616 3688 
L 1656 4403 
L 2175 4403 
L 2175 478 
L 3247 478 
L 3247 0 
L 488 0 
z
" transform="scale(0.015625)"/>
        <path id="LiberationSans-2e" d="M 584 0 
L 584 684 
L 1194 684 
L 1194 0 
L 584 0 
z
" transform="scale(0.015625)"/>
        <path id="LiberationSans-30" d="M 3309 2203 
Q 3309 1569 3189 1136 
Q 3069 703 2861 436 
Q 2653 169 2372 53 
Q 2091 -63 1772 -63 
Q 1450 -63 1172 53 
Q 894 169 689 434 
Q 484 700 367 1133 
Q 250 1566 250 2203 
Q 250 2869 367 3305 
Q 484 3741 690 4000 
Q 897 4259 1178 4364 
Q 1459 4469 1791 4469 
Q 2106 4469 2382 4364 
Q 2659 4259 2865 4000 
Q 3072 3741 3190 3305 
Q 3309 2869 3309 2203 
z
M 2738 2203 
Q 2738 2728 2675 3076 
Q 2613 3425 2491 3633 
Q 2369 3841 2192 3927 
Q 2016 4013 1791 4013 
Q 1553 4013 1372 3925 
Q 1191 3838 1067 3630 
Q 944 3422 881 3073 
Q 819 2725 819 2203 
Q 819 1697 883 1350 
Q 947 1003 1070 792 
Q 1194 581 1372 489 
Q 1550 397 1778 397 
Q 2000 397 2178 489 
Q 2356 581 2479 792 
Q 2603 1003 2670 1350 
Q 2738 1697 2738 2203 
z
" transform="scale(0.015625)"/>
       </defs>
       <use xlink:href="#LiberationSans-2212"/>
       <use xlink:href="#LiberationSans-31" x="58.398438"/>
       <use xlink:href="#LiberationSans-2e" x="114.013672"/>
       <use xlink:href="#LiberationSans-30" x="141.796875"/>
      </g>
     </g>
    </g>
    <g id="xtick_2">
     <g id="line2d_2">
      <g>
       <use xlink:href="#m088bf192bb" x="374.238779" y="395.28" style="stroke: #000000; stroke-width: 0.8"/>
      </g>
     </g>
     <g id="text_2">
      <!-- −0.5 -->
      <g transform="translate(359.43331 413.150312) scale(0.15 -0.15)">
       <defs>
        <path id="LiberationSans-35" d="M 3291 1434 
Q 3291 1103 3191 828 
Q 3091 553 2894 354 
Q 2697 156 2405 46 
Q 2113 -63 1728 -63 
Q 1381 -63 1123 18 
Q 866 100 687 242 
Q 509 384 404 575 
Q 300 766 256 984 
L 825 1050 
Q 859 925 921 808 
Q 984 691 1092 598 
Q 1200 506 1358 451 
Q 1516 397 1741 397 
Q 1959 397 2137 464 
Q 2316 531 2442 662 
Q 2569 794 2637 984 
Q 2706 1175 2706 1422 
Q 2706 1625 2640 1795 
Q 2575 1966 2453 2089 
Q 2331 2213 2154 2281 
Q 1978 2350 1753 2350 
Q 1613 2350 1494 2325 
Q 1375 2300 1273 2256 
Q 1172 2213 1089 2155 
Q 1006 2097 934 2034 
L 384 2034 
L 531 4403 
L 3034 4403 
L 3034 3925 
L 1044 3925 
L 959 2528 
Q 1109 2644 1334 2726 
Q 1559 2809 1869 2809 
Q 2197 2809 2459 2709 
Q 2722 2609 2906 2426 
Q 3091 2244 3191 1991 
Q 3291 1738 3291 1434 
z
" transform="scale(0.015625)"/>
       </defs>
       <use xlink:href="#LiberationSans-2212"/>
       <use xlink:href="#LiberationSans-30" x="58.398438"/>
       <use xlink:href="#LiberationSans-2e" x="114.013672"/>
       <use xlink:href="#LiberationSans-35" x="141.796875"/>
      </g>
     </g>
    </g>
    <g id="xtick_3">
     <g id="line2d_3">
      <g>
       <use xlink:href="#m088bf192bb" x="526.818833" y="395.28" style="stroke: #000000; stroke-width: 0.8"/>
      </g>
     </g>
     <g id="text_3">
      <!-- 0.0 -->
      <g transform="translate(516.393833 413.150312) scale(0.15 -0.15)">
       <use xlink:href="#LiberationSans-30"/>
       <use xlink:href="#LiberationSans-2e" x="55.615234"/>
       <use xlink:href="#LiberationSans-30" x="83.398438"/>
      </g>
     </g>
    </g>
    <g id="xtick_4">
     <g id="line2d_4">
      <g>
       <use xlink:href="#m088bf192bb" x="679.398887" y="395.28" style="stroke: #000000; stroke-width: 0.8"/>
      </g>
     </g>
     <g id="text_4">
      <!-- 0.5 -->
      <g transform="translate(668.973887 413.150312) scale(0.15 -0.15)">
       <use xlink:href="#LiberationSans-30"/>
       <use xlink:href="#LiberationSans-2e" x="55.615234"/>
       <use xlink:href="#LiberationSans-35" x="83.398438"/>
      </g>
     </g>
    </g>
    <g id="xtick_5">
     <g id="line2d_5">
      <g>
       <use xlink:href="#m088bf192bb" x="831.978941" y="395.28" style="stroke: #000000; stroke-width: 0.8"/>
      </g>
     </g>
     <g id="text_5">
      <!-- 1.0 -->
      <g transform="translate(821.553941 413.150312) scale(0.15 -0.15)">
       <use xlink:href="#LiberationSans-31"/>
       <use xlink:href="#LiberationSans-2e" x="55.615234"/>
       <use xlink:href="#LiberationSans-30" x="83.398438"/>
      </g>
     </g>
    </g>
   </g>
   <g id="matplotlib.axis_2">
    <g id="ytick_1">
     <g id="line2d_6">
      <defs>
       <path id="mae4258cbfe" d="M 0 0 
L -3.5 0 
" style="stroke: #000000; stroke-width: 0.8"/>
      </defs>
      <g>
       <use xlink:href="#mae4258cbfe" x="177.210156" y="377.64" style="stroke: #000000; stroke-width: 0.8"/>
      </g>
     </g>
     <g id="text_6">
      <!-- AXIN2, n=16, [6, 5] -->
      <g transform="translate(43.052344 383.075156) scale(0.15 -0.15)">
       <defs>
        <path id="LiberationSans-41" d="M 3647 0 
L 3144 1288 
L 1138 1288 
L 631 0 
L 13 0 
L 1809 4403 
L 2488 4403 
L 4256 0 
L 3647 0 
z
M 2400 3206 
Q 2350 3331 2304 3459 
Q 2259 3588 2225 3692 
Q 2191 3797 2167 3867 
Q 2144 3938 2141 3953 
Q 2134 3938 2112 3866 
Q 2091 3794 2055 3687 
Q 2019 3581 1973 3453 
Q 1928 3325 1881 3200 
L 1319 1753 
L 2966 1753 
L 2400 3206 
z
" transform="scale(0.015625)"/>
        <path id="LiberationSans-58" d="M 3475 0 
L 2153 1925 
L 803 0 
L 144 0 
L 1819 2288 
L 272 4403 
L 931 4403 
L 2156 2675 
L 3347 4403 
L 4006 4403 
L 2500 2309 
L 4134 0 
L 3475 0 
z
" transform="scale(0.015625)"/>
        <path id="LiberationSans-49" d="M 591 0 
L 591 4403 
L 1188 4403 
L 1188 0 
L 591 0 
z
" transform="scale(0.015625)"/>
        <path id="LiberationSans-4e" d="M 3381 0 
L 1025 3750 
Q 1031 3597 1041 3447 
Q 1047 3319 1051 3176 
Q 1056 3034 1056 2925 
L 1056 0 
L 525 0 
L 525 4403 
L 1219 4403 
L 3600 628 
Q 3591 781 3581 934 
Q 3575 1066 3569 1220 
Q 3563 1375 3563 1516 
L 3563 4403 
L 4100 4403 
L 4100 0 
L 3381 0 
z
" transform="scale(0.015625)"/>
        <path id="LiberationSans-32" d="M 322 0 
L 322 397 
Q 481 763 711 1042 
Q 941 1322 1194 1548 
Q 1447 1775 1695 1969 
Q 1944 2163 2144 2356 
Q 2344 2550 2467 2762 
Q 2591 2975 2591 3244 
Q 2591 3431 2534 3573 
Q 2478 3716 2372 3812 
Q 2266 3909 2117 3957 
Q 1969 4006 1788 4006 
Q 1619 4006 1470 3959 
Q 1322 3913 1206 3819 
Q 1091 3725 1017 3586 
Q 944 3447 922 3263 
L 347 3316 
Q 375 3553 478 3762 
Q 581 3972 762 4130 
Q 944 4288 1198 4378 
Q 1453 4469 1788 4469 
Q 2116 4469 2372 4391 
Q 2628 4313 2804 4159 
Q 2981 4006 3075 3781 
Q 3169 3556 3169 3263 
Q 3169 3041 3089 2841 
Q 3009 2641 2876 2459 
Q 2744 2278 2569 2109 
Q 2394 1941 2203 1780 
Q 2013 1619 1819 1461 
Q 1625 1303 1454 1143 
Q 1284 984 1150 820 
Q 1016 656 941 478 
L 3238 478 
L 3238 0 
L 322 0 
z
" transform="scale(0.015625)"/>
        <path id="LiberationSans-2c" d="M 1203 684 
L 1203 159 
Q 1203 -6 1189 -142 
Q 1175 -278 1144 -395 
Q 1113 -513 1067 -616 
Q 1022 -719 959 -819 
L 575 -819 
Q 716 -616 792 -409 
Q 869 -203 869 0 
L 594 0 
L 594 684 
L 1203 684 
z
" transform="scale(0.015625)"/>
        <path id="LiberationSans-20" transform="scale(0.015625)"/>
        <path id="LiberationSans-6e" d="M 2578 0 
L 2578 2144 
Q 2578 2391 2542 2556 
Q 2506 2722 2425 2823 
Q 2344 2925 2211 2967 
Q 2078 3009 1881 3009 
Q 1681 3009 1520 2939 
Q 1359 2869 1245 2736 
Q 1131 2603 1068 2408 
Q 1006 2213 1006 1959 
L 1006 0 
L 444 0 
L 444 2659 
Q 444 2766 442 2883 
Q 441 3000 437 3104 
Q 434 3209 431 3284 
Q 428 3359 425 3381 
L 956 3381 
Q 959 3366 962 3297 
Q 966 3228 970 3139 
Q 975 3050 978 2958 
Q 981 2866 981 2803 
L 991 2803 
Q 1072 2950 1169 3069 
Q 1266 3188 1394 3270 
Q 1522 3353 1687 3398 
Q 1853 3444 2072 3444 
Q 2353 3444 2556 3375 
Q 2759 3306 2890 3162 
Q 3022 3019 3083 2792 
Q 3144 2566 3144 2253 
L 3144 0 
L 2578 0 
z
" transform="scale(0.015625)"/>
        <path id="LiberationSans-3d" d="M 313 2675 
L 313 3138 
L 3422 3138 
L 3422 2675 
L 313 2675 
z
M 313 1075 
L 313 1538 
L 3422 1538 
L 3422 1075 
L 313 1075 
z
" transform="scale(0.015625)"/>
        <path id="LiberationSans-36" d="M 3278 1441 
Q 3278 1109 3186 832 
Q 3094 556 2914 357 
Q 2734 159 2468 48 
Q 2203 -63 1856 -63 
Q 1472 -63 1184 84 
Q 897 231 706 507 
Q 516 784 420 1186 
Q 325 1588 325 2100 
Q 325 2688 433 3131 
Q 541 3575 744 3872 
Q 947 4169 1239 4319 
Q 1531 4469 1900 4469 
Q 2125 4469 2322 4422 
Q 2519 4375 2680 4270 
Q 2841 4166 2962 3994 
Q 3084 3822 3156 3572 
L 2619 3475 
Q 2531 3759 2339 3886 
Q 2147 4013 1894 4013 
Q 1663 4013 1475 3903 
Q 1288 3794 1156 3576 
Q 1025 3359 954 3031 
Q 884 2703 884 2266 
Q 1038 2550 1316 2698 
Q 1594 2847 1953 2847 
Q 2253 2847 2497 2750 
Q 2741 2653 2914 2470 
Q 3088 2288 3183 2027 
Q 3278 1766 3278 1441 
z
M 2706 1416 
Q 2706 1644 2650 1828 
Q 2594 2013 2481 2142 
Q 2369 2272 2203 2342 
Q 2038 2413 1819 2413 
Q 1666 2413 1509 2367 
Q 1353 2322 1226 2220 
Q 1100 2119 1020 1953 
Q 941 1788 941 1550 
Q 941 1306 1003 1095 
Q 1066 884 1183 728 
Q 1300 572 1465 481 
Q 1631 391 1838 391 
Q 2041 391 2202 461 
Q 2363 531 2475 664 
Q 2588 797 2647 987 
Q 2706 1178 2706 1416 
z
" transform="scale(0.015625)"/>
        <path id="LiberationSans-5b" d="M 456 -1328 
L 456 4638 
L 1728 4638 
L 1728 4234 
L 1000 4234 
L 1000 -925 
L 1728 -925 
L 1728 -1328 
L 456 -1328 
z
" transform="scale(0.015625)"/>
        <path id="LiberationSans-5d" d="M 50 -1328 
L 50 -925 
L 778 -925 
L 778 4234 
L 50 4234 
L 50 4638 
L 1322 4638 
L 1322 -1328 
L 50 -1328 
z
" transform="scale(0.015625)"/>
       </defs>
       <use xlink:href="#LiberationSans-41"/>
       <use xlink:href="#LiberationSans-58" x="66.699219"/>
       <use xlink:href="#LiberationSans-49" x="133.398438"/>
       <use xlink:href="#LiberationSans-4e" x="161.181641"/>
       <use xlink:href="#LiberationSans-32" x="233.398438"/>
       <use xlink:href="#LiberationSans-2c" x="289.013672"/>
       <use xlink:href="#LiberationSans-20" x="316.796875"/>
       <use xlink:href="#LiberationSans-6e" x="344.580078"/>
       <use xlink:href="#LiberationSans-3d" x="400.195312"/>
       <use xlink:href="#LiberationSans-31" x="458.59375"/>
       <use xlink:href="#LiberationSans-36" x="514.208984"/>
       <use xlink:href="#LiberationSans-2c" x="569.824219"/>
       <use xlink:href="#LiberationSans-20" x="597.607422"/>
       <use xlink:href="#LiberationSans-5b" x="625.390625"/>
       <use xlink:href="#LiberationSans-36" x="653.173828"/>
       <use xlink:href="#LiberationSans-2c" x="708.789062"/>
       <use xlink:href="#LiberationSans-20" x="736.572266"/>
       <use xlink:href="#LiberationSans-35" x="764.355469"/>
       <use xlink:href="#LiberationSans-5d" x="819.970703"/>
      </g>
     </g>
    </g>
    <g id="ytick_2">
     <g id="line2d_7">
      <g>
       <use xlink:href="#mae4258cbfe" x="177.210156" y="333.54" style="stroke: #000000; stroke-width: 0.8"/>
      </g>
     </g>
     <g id="text_7">
      <!-- JUN, n=9, [2, 4] -->
      <g transform="translate(65.580469 338.975156) scale(0.15 -0.15)">
       <defs>
        <path id="LiberationSans-4a" d="M 1428 -63 
Q 894 -63 551 215 
Q 209 494 100 1094 
L 684 1191 
Q 716 988 787 842 
Q 859 697 959 603 
Q 1059 509 1181 465 
Q 1303 422 1431 422 
Q 1756 422 1943 645 
Q 2131 869 2131 1300 
L 2131 3916 
L 1284 3916 
L 1284 4403 
L 2725 4403 
L 2725 1313 
Q 2725 997 2637 744 
Q 2550 491 2383 311 
Q 2216 131 1975 34 
Q 1734 -63 1428 -63 
z
" transform="scale(0.015625)"/>
        <path id="LiberationSans-55" d="M 2284 -63 
Q 1922 -63 1597 34 
Q 1272 131 1026 336 
Q 781 541 637 855 
Q 494 1169 494 1600 
L 494 4403 
L 1091 4403 
L 1091 1650 
Q 1091 1316 1180 1083 
Q 1269 850 1428 703 
Q 1588 556 1805 489 
Q 2022 422 2281 422 
Q 2538 422 2766 490 
Q 2994 559 3166 709 
Q 3338 859 3436 1101 
Q 3534 1344 3534 1691 
L 3534 4403 
L 4128 4403 
L 4128 1656 
Q 4128 1216 3983 892 
Q 3838 569 3588 356 
Q 3338 144 3002 40 
Q 2666 -63 2284 -63 
z
" transform="scale(0.015625)"/>
        <path id="LiberationSans-39" d="M 3256 2291 
Q 3256 1703 3145 1261 
Q 3034 819 2828 525 
Q 2622 231 2326 84 
Q 2031 -63 1663 -63 
Q 1409 -63 1206 -11 
Q 1003 41 843 150 
Q 684 259 571 434 
Q 459 609 391 856 
L 928 941 
Q 1016 656 1202 523 
Q 1388 391 1672 391 
Q 1900 391 2089 498 
Q 2278 606 2411 822 
Q 2544 1038 2619 1363 
Q 2694 1688 2700 2125 
Q 2634 1978 2520 1862 
Q 2406 1747 2261 1667 
Q 2116 1588 1947 1545 
Q 1778 1503 1606 1503 
Q 1306 1503 1064 1611 
Q 822 1719 653 1912 
Q 484 2106 392 2379 
Q 300 2653 300 2988 
Q 300 3328 398 3603 
Q 497 3878 684 4070 
Q 872 4263 1145 4366 
Q 1419 4469 1766 4469 
Q 2500 4469 2878 3925 
Q 3256 3381 3256 2291 
z
M 2644 2834 
Q 2644 3078 2586 3293 
Q 2528 3509 2414 3668 
Q 2300 3828 2133 3920 
Q 1966 4013 1747 4013 
Q 1544 4013 1381 3941 
Q 1219 3869 1106 3736 
Q 994 3603 933 3412 
Q 872 3222 872 2988 
Q 872 2766 926 2575 
Q 981 2384 1090 2245 
Q 1200 2106 1362 2026 
Q 1525 1947 1741 1947 
Q 1897 1947 2058 2000 
Q 2219 2053 2348 2162 
Q 2478 2272 2561 2439 
Q 2644 2606 2644 2834 
z
" transform="scale(0.015625)"/>
        <path id="LiberationSans-34" d="M 2753 997 
L 2753 0 
L 2222 0 
L 2222 997 
L 147 997 
L 147 1434 
L 2163 4403 
L 2753 4403 
L 2753 1441 
L 3372 1441 
L 3372 997 
L 2753 997 
z
M 2222 3769 
Q 2216 3753 2191 3708 
Q 2166 3663 2134 3606 
Q 2103 3550 2070 3492 
Q 2038 3434 2013 3397 
L 884 1734 
Q 869 1709 839 1668 
Q 809 1628 778 1586 
Q 747 1544 715 1503 
Q 684 1463 666 1441 
L 2222 1441 
L 2222 3769 
z
" transform="scale(0.015625)"/>
       </defs>
       <use xlink:href="#LiberationSans-4a"/>
       <use xlink:href="#LiberationSans-55" x="50"/>
       <use xlink:href="#LiberationSans-4e" x="122.216797"/>
       <use xlink:href="#LiberationSans-2c" x="194.433594"/>
       <use xlink:href="#LiberationSans-20" x="222.216797"/>
       <use xlink:href="#LiberationSans-6e" x="250"/>
       <use xlink:href="#LiberationSans-3d" x="305.615234"/>
       <use xlink:href="#LiberationSans-39" x="364.013672"/>
       <use xlink:href="#LiberationSans-2c" x="419.628906"/>
       <use xlink:href="#LiberationSans-20" x="447.412109"/>
       <use xlink:href="#LiberationSans-5b" x="475.195312"/>
       <use xlink:href="#LiberationSans-32" x="502.978516"/>
       <use xlink:href="#LiberationSans-2c" x="558.59375"/>
       <use xlink:href="#LiberationSans-20" x="586.376953"/>
       <use xlink:href="#LiberationSans-34" x="614.160156"/>
       <use xlink:href="#LiberationSans-5d" x="669.775391"/>
      </g>
     </g>
    </g>
    <g id="ytick_3">
     <g id="line2d_8">
      <g>
       <use xlink:href="#mae4258cbfe" x="177.210156" y="289.44" style="stroke: #000000; stroke-width: 0.8"/>
      </g>
     </g>
     <g id="text_8">
      <!-- AMER1, n=51, [29, 13] -->
      <g transform="translate(18.042187 294.875156) scale(0.15 -0.15)">
       <defs>
        <path id="LiberationSans-4d" d="M 4269 0 
L 4269 2938 
Q 4269 3097 4272 3262 
Q 4275 3428 4281 3566 
Q 4288 3725 4297 3875 
Q 4253 3716 4206 3559 
Q 4166 3425 4117 3273 
Q 4069 3122 4022 3000 
L 2884 0 
L 2466 0 
L 1313 3000 
Q 1294 3047 1273 3109 
Q 1253 3172 1229 3242 
Q 1206 3313 1182 3386 
Q 1159 3459 1138 3531 
Q 1084 3697 1034 3875 
Q 1038 3700 1044 3528 
Q 1050 3381 1053 3220 
Q 1056 3059 1056 2938 
L 1056 0 
L 525 0 
L 525 4403 
L 1309 4403 
L 2481 1350 
Q 2503 1288 2534 1189 
Q 2566 1091 2594 987 
Q 2622 884 2645 792 
Q 2669 700 2678 650 
Q 2688 700 2713 794 
Q 2738 888 2770 991 
Q 2803 1094 2834 1191 
Q 2866 1288 2891 1350 
L 4041 4403 
L 4806 4403 
L 4806 0 
L 4269 0 
z
" transform="scale(0.015625)"/>
        <path id="LiberationSans-45" d="M 525 0 
L 525 4403 
L 3866 4403 
L 3866 3916 
L 1122 3916 
L 1122 2503 
L 3678 2503 
L 3678 2022 
L 1122 2022 
L 1122 488 
L 3994 488 
L 3994 0 
L 525 0 
z
" transform="scale(0.015625)"/>
        <path id="LiberationSans-52" d="M 3638 0 
L 2494 1828 
L 1122 1828 
L 1122 0 
L 525 0 
L 525 4403 
L 2597 4403 
Q 2972 4403 3261 4317 
Q 3550 4231 3747 4068 
Q 3944 3906 4047 3672 
Q 4150 3438 4150 3144 
Q 4150 2934 4089 2731 
Q 4028 2528 3897 2359 
Q 3766 2191 3562 2069 
Q 3359 1947 3075 1897 
L 4325 0 
L 3638 0 
z
M 3550 3138 
Q 3550 3338 3481 3484 
Q 3413 3631 3281 3729 
Q 3150 3828 2962 3876 
Q 2775 3925 2538 3925 
L 1122 3925 
L 1122 2300 
L 2563 2300 
Q 2819 2300 3006 2364 
Q 3194 2428 3314 2540 
Q 3434 2653 3492 2806 
Q 3550 2959 3550 3138 
z
" transform="scale(0.015625)"/>
        <path id="LiberationSans-33" d="M 3278 1216 
Q 3278 913 3179 675 
Q 3081 438 2892 273 
Q 2703 109 2423 23 
Q 2144 -63 1784 -63 
Q 1375 -63 1095 39 
Q 816 141 634 308 
Q 453 475 362 689 
Q 272 903 244 1131 
L 825 1184 
Q 850 1009 917 865 
Q 984 722 1100 619 
Q 1216 516 1384 459 
Q 1553 403 1784 403 
Q 2209 403 2451 612 
Q 2694 822 2694 1234 
Q 2694 1478 2586 1626 
Q 2478 1775 2317 1858 
Q 2156 1941 1967 1969 
Q 1778 1997 1619 1997 
L 1300 1997 
L 1300 2484 
L 1606 2484 
Q 1766 2484 1937 2517 
Q 2109 2550 2251 2636 
Q 2394 2722 2486 2869 
Q 2578 3016 2578 3244 
Q 2578 3597 2370 3801 
Q 2163 4006 1753 4006 
Q 1381 4006 1151 3815 
Q 922 3625 884 3278 
L 319 3322 
Q 353 3613 478 3828 
Q 603 4044 795 4186 
Q 988 4328 1234 4398 
Q 1481 4469 1759 4469 
Q 2128 4469 2393 4376 
Q 2659 4284 2828 4126 
Q 2997 3969 3076 3756 
Q 3156 3544 3156 3303 
Q 3156 3109 3103 2940 
Q 3050 2772 2937 2637 
Q 2825 2503 2651 2406 
Q 2478 2309 2234 2259 
L 2234 2247 
Q 2500 2219 2697 2126 
Q 2894 2034 3022 1896 
Q 3150 1759 3214 1584 
Q 3278 1409 3278 1216 
z
" transform="scale(0.015625)"/>
       </defs>
       <use xlink:href="#LiberationSans-41"/>
       <use xlink:href="#LiberationSans-4d" x="66.699219"/>
       <use xlink:href="#LiberationSans-45" x="150"/>
       <use xlink:href="#LiberationSans-52" x="216.699219"/>
       <use xlink:href="#LiberationSans-31" x="288.916016"/>
       <use xlink:href="#LiberationSans-2c" x="344.53125"/>
       <use xlink:href="#LiberationSans-20" x="372.314453"/>
       <use xlink:href="#LiberationSans-6e" x="400.097656"/>
       <use xlink:href="#LiberationSans-3d" x="455.712891"/>
       <use xlink:href="#LiberationSans-35" x="514.111328"/>
       <use xlink:href="#LiberationSans-31" x="569.726562"/>
       <use xlink:href="#LiberationSans-2c" x="625.341797"/>
       <use xlink:href="#LiberationSans-20" x="653.125"/>
       <use xlink:href="#LiberationSans-5b" x="680.908203"/>
       <use xlink:href="#LiberationSans-32" x="708.691406"/>
       <use xlink:href="#LiberationSans-39" x="764.306641"/>
       <use xlink:href="#LiberationSans-2c" x="819.921875"/>
       <use xlink:href="#LiberationSans-20" x="847.705078"/>
       <use xlink:href="#LiberationSans-31" x="875.488281"/>
       <use xlink:href="#LiberationSans-33" x="931.103516"/>
       <use xlink:href="#LiberationSans-5d" x="986.71875"/>
      </g>
     </g>
    </g>
    <g id="ytick_4">
     <g id="line2d_9">
      <g>
       <use xlink:href="#mae4258cbfe" x="177.210156" y="245.34" style="stroke: #000000; stroke-width: 0.8"/>
      </g>
     </g>
     <g id="text_9">
      <!-- SOX9, n=103, [39, 40] -->
      <g transform="translate(21.360937 250.775156) scale(0.15 -0.15)">
       <defs>
        <path id="LiberationSans-53" d="M 3975 1216 
Q 3975 938 3867 703 
Q 3759 469 3534 298 
Q 3309 128 2967 32 
Q 2625 -63 2156 -63 
Q 1334 -63 875 225 
Q 416 513 291 1056 
L 869 1172 
Q 913 1000 1003 859 
Q 1094 719 1248 617 
Q 1403 516 1631 459 
Q 1859 403 2178 403 
Q 2444 403 2666 448 
Q 2888 494 3047 587 
Q 3206 681 3295 829 
Q 3384 978 3384 1184 
Q 3384 1400 3286 1534 
Q 3188 1669 3009 1756 
Q 2831 1844 2584 1903 
Q 2338 1963 2038 2031 
Q 1853 2072 1667 2120 
Q 1481 2169 1311 2236 
Q 1141 2303 991 2393 
Q 841 2484 731 2611 
Q 622 2738 559 2905 
Q 497 3072 497 3291 
Q 497 3603 623 3826 
Q 750 4050 975 4194 
Q 1200 4338 1506 4403 
Q 1813 4469 2169 4469 
Q 2578 4469 2868 4405 
Q 3159 4341 3359 4212 
Q 3559 4084 3679 3895 
Q 3800 3706 3872 3456 
L 3284 3353 
Q 3241 3513 3158 3638 
Q 3075 3763 2940 3847 
Q 2806 3931 2614 3975 
Q 2422 4019 2163 4019 
Q 1856 4019 1648 3964 
Q 1441 3909 1314 3815 
Q 1188 3722 1133 3595 
Q 1078 3469 1078 3322 
Q 1078 3125 1176 2998 
Q 1275 2872 1444 2787 
Q 1613 2703 1834 2647 
Q 2056 2591 2306 2534 
Q 2509 2488 2711 2439 
Q 2913 2391 3097 2323 
Q 3281 2256 3442 2165 
Q 3603 2075 3722 1944 
Q 3841 1813 3908 1634 
Q 3975 1456 3975 1216 
z
" transform="scale(0.015625)"/>
        <path id="LiberationSans-4f" d="M 4672 2222 
Q 4672 1706 4523 1284 
Q 4375 863 4094 563 
Q 3813 263 3406 100 
Q 3000 -63 2484 -63 
Q 1941 -63 1531 107 
Q 1122 278 850 583 
Q 578 888 440 1306 
Q 303 1725 303 2222 
Q 303 2738 447 3153 
Q 591 3569 869 3861 
Q 1147 4153 1555 4311 
Q 1963 4469 2491 4469 
Q 3016 4469 3423 4309 
Q 3831 4150 4107 3856 
Q 4384 3563 4528 3147 
Q 4672 2731 4672 2222 
z
M 4063 2222 
Q 4063 2619 3961 2944 
Q 3859 3269 3661 3500 
Q 3463 3731 3169 3856 
Q 2875 3981 2491 3981 
Q 2097 3981 1800 3856 
Q 1503 3731 1304 3500 
Q 1106 3269 1007 2944 
Q 909 2619 909 2222 
Q 909 1825 1011 1495 
Q 1113 1166 1311 927 
Q 1509 688 1804 555 
Q 2100 422 2484 422 
Q 2897 422 3195 556 
Q 3494 691 3686 930 
Q 3878 1169 3970 1500 
Q 4063 1831 4063 2222 
z
" transform="scale(0.015625)"/>
       </defs>
       <use xlink:href="#LiberationSans-53"/>
       <use xlink:href="#LiberationSans-4f" x="66.699219"/>
       <use xlink:href="#LiberationSans-58" x="144.482422"/>
       <use xlink:href="#LiberationSans-39" x="211.181641"/>
       <use xlink:href="#LiberationSans-2c" x="266.796875"/>
       <use xlink:href="#LiberationSans-20" x="294.580078"/>
       <use xlink:href="#LiberationSans-6e" x="322.363281"/>
       <use xlink:href="#LiberationSans-3d" x="377.978516"/>
       <use xlink:href="#LiberationSans-31" x="436.376953"/>
       <use xlink:href="#LiberationSans-30" x="491.992188"/>
       <use xlink:href="#LiberationSans-33" x="547.607422"/>
       <use xlink:href="#LiberationSans-2c" x="603.222656"/>
       <use xlink:href="#LiberationSans-20" x="631.005859"/>
       <use xlink:href="#LiberationSans-5b" x="658.789062"/>
       <use xlink:href="#LiberationSans-33" x="686.572266"/>
       <use xlink:href="#LiberationSans-39" x="742.1875"/>
       <use xlink:href="#LiberationSans-2c" x="797.802734"/>
       <use xlink:href="#LiberationSans-20" x="825.585938"/>
       <use xlink:href="#LiberationSans-34" x="853.369141"/>
       <use xlink:href="#LiberationSans-30" x="908.984375"/>
       <use xlink:href="#LiberationSans-5d" x="964.599609"/>
      </g>
     </g>
    </g>
    <g id="ytick_5">
     <g id="line2d_10">
      <g>
       <use xlink:href="#mae4258cbfe" x="177.210156" y="201.24" style="stroke: #000000; stroke-width: 0.8"/>
      </g>
     </g>
     <g id="text_10">
      <!-- FBXW7, n=106, [25, 55] -->
      <g transform="translate(9.707812 206.675156) scale(0.15 -0.15)">
       <defs>
        <path id="LiberationSans-46" d="M 1122 3916 
L 1122 2278 
L 3578 2278 
L 3578 1784 
L 1122 1784 
L 1122 0 
L 525 0 
L 525 4403 
L 3653 4403 
L 3653 3916 
L 1122 3916 
z
" transform="scale(0.015625)"/>
        <path id="LiberationSans-42" d="M 3931 1241 
Q 3931 906 3800 670 
Q 3669 434 3447 286 
Q 3225 138 2931 69 
Q 2638 0 2313 0 
L 525 0 
L 525 4403 
L 2125 4403 
Q 2491 4403 2778 4342 
Q 3066 4281 3266 4150 
Q 3466 4019 3570 3817 
Q 3675 3616 3675 3334 
Q 3675 3150 3623 2987 
Q 3572 2825 3467 2692 
Q 3363 2559 3205 2464 
Q 3047 2369 2838 2322 
Q 3103 2291 3308 2200 
Q 3513 2109 3650 1968 
Q 3788 1828 3859 1642 
Q 3931 1456 3931 1241 
z
M 3075 3263 
Q 3075 3619 2831 3772 
Q 2588 3925 2125 3925 
L 1122 3925 
L 1122 2531 
L 2125 2531 
Q 2388 2531 2569 2582 
Q 2750 2634 2862 2729 
Q 2975 2825 3025 2959 
Q 3075 3094 3075 3263 
z
M 3328 1288 
Q 3328 1497 3251 1644 
Q 3175 1791 3031 1884 
Q 2888 1978 2686 2022 
Q 2484 2066 2234 2066 
L 1122 2066 
L 1122 478 
L 2281 478 
Q 2509 478 2701 515 
Q 2894 553 3033 647 
Q 3172 741 3250 897 
Q 3328 1053 3328 1288 
z
" transform="scale(0.015625)"/>
        <path id="LiberationSans-57" d="M 4722 0 
L 4009 0 
L 3247 2797 
Q 3213 2916 3173 3078 
Q 3134 3241 3103 3388 
Q 3066 3559 3028 3738 
Q 2988 3556 2950 3384 
Q 2916 3234 2878 3075 
Q 2841 2916 2806 2797 
L 2038 0 
L 1325 0 
L 28 4403 
L 650 4403 
L 1441 1606 
Q 1494 1409 1542 1215 
Q 1591 1022 1625 869 
Q 1666 688 1700 525 
Q 1747 741 1797 950 
Q 1819 1038 1841 1134 
Q 1863 1231 1886 1325 
Q 1909 1419 1932 1505 
Q 1956 1591 1975 1663 
L 2741 4403 
L 3313 4403 
L 4078 1663 
Q 4097 1591 4120 1505 
Q 4144 1419 4167 1326 
Q 4191 1234 4212 1137 
Q 4234 1041 4256 953 
Q 4306 744 4353 525 
Q 4356 525 4381 633 
Q 4406 741 4443 903 
Q 4481 1066 4526 1255 
Q 4572 1444 4619 1606 
L 5397 4403 
L 6019 4403 
L 4722 0 
z
" transform="scale(0.015625)"/>
        <path id="LiberationSans-37" d="M 3238 3947 
Q 2906 3441 2628 2973 
Q 2350 2506 2150 2032 
Q 1950 1559 1839 1061 
Q 1728 563 1728 0 
L 1141 0 
Q 1141 528 1266 1036 
Q 1391 1544 1603 2033 
Q 1816 2522 2097 2994 
Q 2378 3466 2694 3925 
L 328 3925 
L 328 4403 
L 3238 4403 
L 3238 3947 
z
" transform="scale(0.015625)"/>
       </defs>
       <use xlink:href="#LiberationSans-46"/>
       <use xlink:href="#LiberationSans-42" x="61.083984"/>
       <use xlink:href="#LiberationSans-58" x="127.783203"/>
       <use xlink:href="#LiberationSans-57" x="194.482422"/>
       <use xlink:href="#LiberationSans-37" x="288.867188"/>
       <use xlink:href="#LiberationSans-2c" x="344.482422"/>
       <use xlink:href="#LiberationSans-20" x="372.265625"/>
       <use xlink:href="#LiberationSans-6e" x="400.048828"/>
       <use xlink:href="#LiberationSans-3d" x="455.664062"/>
       <use xlink:href="#LiberationSans-31" x="514.0625"/>
       <use xlink:href="#LiberationSans-30" x="569.677734"/>
       <use xlink:href="#LiberationSans-36" x="625.292969"/>
       <use xlink:href="#LiberationSans-2c" x="680.908203"/>
       <use xlink:href="#LiberationSans-20" x="708.691406"/>
       <use xlink:href="#LiberationSans-5b" x="736.474609"/>
       <use xlink:href="#LiberationSans-32" x="764.257812"/>
       <use xlink:href="#LiberationSans-35" x="819.873047"/>
       <use xlink:href="#LiberationSans-2c" x="875.488281"/>
       <use xlink:href="#LiberationSans-20" x="903.271484"/>
       <use xlink:href="#LiberationSans-35" x="931.054688"/>
       <use xlink:href="#LiberationSans-35" x="986.669922"/>
       <use xlink:href="#LiberationSans-5d" x="1042.285156"/>
      </g>
     </g>
    </g>
    <g id="ytick_6">
     <g id="line2d_11">
      <g>
       <use xlink:href="#mae4258cbfe" x="177.210156" y="157.14" style="stroke: #000000; stroke-width: 0.8"/>
      </g>
     </g>
     <g id="text_11">
      <!-- BCL9L, n=31, [9, 20] -->
      <g transform="translate(32.200781 162.575156) scale(0.15 -0.15)">
       <defs>
        <path id="LiberationSans-43" d="M 2475 3981 
Q 2100 3981 1811 3856 
Q 1522 3731 1326 3500 
Q 1131 3269 1031 2944 
Q 931 2619 931 2222 
Q 931 1825 1039 1495 
Q 1147 1166 1348 928 
Q 1550 691 1842 559 
Q 2134 428 2500 428 
Q 2756 428 2967 495 
Q 3178 563 3348 684 
Q 3519 806 3653 973 
Q 3788 1141 3891 1344 
L 4378 1100 
Q 4259 853 4084 640 
Q 3909 428 3673 272 
Q 3438 116 3139 26 
Q 2841 -63 2472 -63 
Q 1938 -63 1536 107 
Q 1134 278 864 583 
Q 594 888 459 1306 
Q 325 1725 325 2222 
Q 325 2738 467 3153 
Q 609 3569 882 3861 
Q 1156 4153 1556 4311 
Q 1956 4469 2469 4469 
Q 3172 4469 3644 4194 
Q 4116 3919 4338 3378 
L 3772 3191 
Q 3709 3347 3603 3489 
Q 3497 3631 3337 3740 
Q 3178 3850 2964 3915 
Q 2750 3981 2475 3981 
z
" transform="scale(0.015625)"/>
        <path id="LiberationSans-4c" d="M 525 0 
L 525 4403 
L 1122 4403 
L 1122 488 
L 3347 488 
L 3347 0 
L 525 0 
z
" transform="scale(0.015625)"/>
       </defs>
       <use xlink:href="#LiberationSans-42"/>
       <use xlink:href="#LiberationSans-43" x="66.699219"/>
       <use xlink:href="#LiberationSans-4c" x="138.916016"/>
       <use xlink:href="#LiberationSans-39" x="194.53125"/>
       <use xlink:href="#LiberationSans-4c" x="250.146484"/>
       <use xlink:href="#LiberationSans-2c" x="305.761719"/>
       <use xlink:href="#LiberationSans-20" x="333.544922"/>
       <use xlink:href="#LiberationSans-6e" x="361.328125"/>
       <use xlink:href="#LiberationSans-3d" x="416.943359"/>
       <use xlink:href="#LiberationSans-33" x="475.341797"/>
       <use xlink:href="#LiberationSans-31" x="530.957031"/>
       <use xlink:href="#LiberationSans-2c" x="586.572266"/>
       <use xlink:href="#LiberationSans-20" x="614.355469"/>
       <use xlink:href="#LiberationSans-5b" x="642.138672"/>
       <use xlink:href="#LiberationSans-39" x="669.921875"/>
       <use xlink:href="#LiberationSans-2c" x="725.537109"/>
       <use xlink:href="#LiberationSans-20" x="753.320312"/>
       <use xlink:href="#LiberationSans-32" x="781.103516"/>
       <use xlink:href="#LiberationSans-30" x="836.71875"/>
       <use xlink:href="#LiberationSans-5d" x="892.333984"/>
      </g>
     </g>
    </g>
    <g id="ytick_7">
     <g id="line2d_12">
      <g>
       <use xlink:href="#mae4258cbfe" x="177.210156" y="113.04" style="stroke: #000000; stroke-width: 0.8"/>
      </g>
     </g>
     <g id="text_12">
      <!-- TCF7L2, n=105, [30, 66] -->
      <g transform="translate(7.2 118.475156) scale(0.15 -0.15)">
       <defs>
        <path id="LiberationSans-54" d="M 2250 3916 
L 2250 0 
L 1656 0 
L 1656 3916 
L 144 3916 
L 144 4403 
L 3763 4403 
L 3763 3916 
L 2250 3916 
z
" transform="scale(0.015625)"/>
       </defs>
       <use xlink:href="#LiberationSans-54"/>
       <use xlink:href="#LiberationSans-43" x="61.083984"/>
       <use xlink:href="#LiberationSans-46" x="133.300781"/>
       <use xlink:href="#LiberationSans-37" x="194.384766"/>
       <use xlink:href="#LiberationSans-4c" x="250"/>
       <use xlink:href="#LiberationSans-32" x="305.615234"/>
       <use xlink:href="#LiberationSans-2c" x="361.230469"/>
       <use xlink:href="#LiberationSans-20" x="389.013672"/>
       <use xlink:href="#LiberationSans-6e" x="416.796875"/>
       <use xlink:href="#LiberationSans-3d" x="472.412109"/>
       <use xlink:href="#LiberationSans-31" x="530.810547"/>
       <use xlink:href="#LiberationSans-30" x="586.425781"/>
       <use xlink:href="#LiberationSans-35" x="642.041016"/>
       <use xlink:href="#LiberationSans-2c" x="697.65625"/>
       <use xlink:href="#LiberationSans-20" x="725.439453"/>
       <use xlink:href="#LiberationSans-5b" x="753.222656"/>
       <use xlink:href="#LiberationSans-33" x="781.005859"/>
       <use xlink:href="#LiberationSans-30" x="836.621094"/>
       <use xlink:href="#LiberationSans-2c" x="892.236328"/>
       <use xlink:href="#LiberationSans-20" x="920.019531"/>
       <use xlink:href="#LiberationSans-36" x="947.802734"/>
       <use xlink:href="#LiberationSans-36" x="1003.417969"/>
       <use xlink:href="#LiberationSans-5d" x="1059.033203"/>
      </g>
     </g>
    </g>
    <g id="ytick_8">
     <g id="line2d_13">
      <g>
       <use xlink:href="#mae4258cbfe" x="177.210156" y="68.94" style="stroke: #000000; stroke-width: 0.8"/>
      </g>
     </g>
     <g id="text_13">
      <!-- BCL9, n=27, [3, 13] -->
      <g transform="translate(40.542187 74.375156) scale(0.15 -0.15)">
       <use xlink:href="#LiberationSans-42"/>
       <use xlink:href="#LiberationSans-43" x="66.699219"/>
       <use xlink:href="#LiberationSans-4c" x="138.916016"/>
       <use xlink:href="#LiberationSans-39" x="194.53125"/>
       <use xlink:href="#LiberationSans-2c" x="250.146484"/>
       <use xlink:href="#LiberationSans-20" x="277.929688"/>
       <use xlink:href="#LiberationSans-6e" x="305.712891"/>
       <use xlink:href="#LiberationSans-3d" x="361.328125"/>
       <use xlink:href="#LiberationSans-32" x="419.726562"/>
       <use xlink:href="#LiberationSans-37" x="475.341797"/>
       <use xlink:href="#LiberationSans-2c" x="530.957031"/>
       <use xlink:href="#LiberationSans-20" x="558.740234"/>
       <use xlink:href="#LiberationSans-5b" x="586.523438"/>
       <use xlink:href="#LiberationSans-33" x="614.306641"/>
       <use xlink:href="#LiberationSans-2c" x="669.921875"/>
       <use xlink:href="#LiberationSans-20" x="697.705078"/>
       <use xlink:href="#LiberationSans-31" x="725.488281"/>
       <use xlink:href="#LiberationSans-33" x="781.103516"/>
       <use xlink:href="#LiberationSans-5d" x="836.71875"/>
      </g>
     </g>
    </g>
    <g id="ytick_9">
     <g id="line2d_14">
      <g>
       <use xlink:href="#mae4258cbfe" x="177.210156" y="24.84" style="stroke: #000000; stroke-width: 0.8"/>
      </g>
     </g>
     <g id="text_14">
      <!-- AXIN1, n=1, [1, 5] -->
      <g transform="translate(51.39375 30.275156) scale(0.15 -0.15)">
       <use xlink:href="#LiberationSans-41"/>
       <use xlink:href="#LiberationSans-58" x="66.699219"/>
       <use xlink:href="#LiberationSans-49" x="133.398438"/>
       <use xlink:href="#LiberationSans-4e" x="161.181641"/>
       <use xlink:href="#LiberationSans-31" x="233.398438"/>
       <use xlink:href="#LiberationSans-2c" x="289.013672"/>
       <use xlink:href="#LiberationSans-20" x="316.796875"/>
       <use xlink:href="#LiberationSans-6e" x="344.580078"/>
       <use xlink:href="#LiberationSans-3d" x="400.195312"/>
       <use xlink:href="#LiberationSans-31" x="458.59375"/>
       <use xlink:href="#LiberationSans-2c" x="514.208984"/>
       <use xlink:href="#LiberationSans-20" x="541.992188"/>
       <use xlink:href="#LiberationSans-5b" x="569.775391"/>
       <use xlink:href="#LiberationSans-31" x="597.558594"/>
       <use xlink:href="#LiberationSans-2c" x="653.173828"/>
       <use xlink:href="#LiberationSans-20" x="680.957031"/>
       <use xlink:href="#LiberationSans-35" x="708.740234"/>
       <use xlink:href="#LiberationSans-5d" x="764.355469"/>
      </g>
     </g>
    </g>
   </g>
   <g id="LineCollection_1">
    <path d="M 312.238126 377.64 
L 733.61396 377.64 
" clip-path="url(#p670d84bf75)" style="fill: none; stroke: #808080; stroke-width: 1.5"/>
   </g>
   <g id="LineCollection_2">
    <path d="M 262.410581 333.54 
L 879.009146 333.54 
" clip-path="url(#p670d84bf75)" style="fill: none; stroke: #808080; stroke-width: 1.5"/>
   </g>
   <g id="line2d_15">
    <defs>
     <path id="mb8b40a5d46" d="M 0 3 
C 0.795609 3 1.55874 2.683901 2.12132 2.12132 
C 2.683901 1.55874 3 0.795609 3 0 
C 3 -0.795609 2.683901 -1.55874 2.12132 -2.12132 
C 1.55874 -2.683901 0.795609 -3 0 -3 
C -0.795609 -3 -1.55874 -2.683901 -2.12132 -2.12132 
C -2.683901 -1.55874 -3 -0.795609 -3 0 
C -3 0.795609 -2.683901 1.55874 -2.12132 2.12132 
C -1.55874 2.683901 -0.795609 3 0 3 
z
" style="stroke: #000000"/>
    </defs>
    <g clip-path="url(#p670d84bf75)">
     <use xlink:href="#mb8b40a5d46" x="780.750636" y="289.44" style="stroke: #000000"/>
     <use xlink:href="#mb8b40a5d46" x="703.75106" y="245.34" style="stroke: #000000"/>
     <use xlink:href="#mb8b40a5d46" x="540.787005" y="201.24" style="stroke: #000000"/>
     <use xlink:href="#mb8b40a5d46" x="424.737834" y="157.14" style="stroke: #000000"/>
     <use xlink:href="#mb8b40a5d46" x="422.419329" y="113.04" style="stroke: #000000"/>
     <use xlink:href="#mb8b40a5d46" x="346.663643" y="68.94" style="stroke: #000000"/>
     <use xlink:href="#mb8b40a5d46" x="321.586276" y="24.84" style="stroke: #000000"/>
    </g>
   </g>
   <g id="line2d_16">
    <defs>
     <path id="m0adc54ef04" d="M -3 3 
L 3 3 
L 3 -3 
L -3 -3 
z
" style="stroke: #808080; stroke-linejoin: miter"/>
    </defs>
    <g clip-path="url(#p670d84bf75)">
     <use xlink:href="#m0adc54ef04" x="617.70959" y="333.54" style="fill: #808080; stroke: #808080; stroke-linejoin: miter"/>
    </g>
   </g>
   <g id="line2d_17">
    <g clip-path="url(#p670d84bf75)">
     <use xlink:href="#m0adc54ef04" x="537.043597" y="377.64" style="fill: #808080; stroke: #808080; stroke-linejoin: miter"/>
    </g>
   </g>
   <g id="LineCollection_3">
    <path d="M 588.752184 289.44 
L 922.901065 289.44 
" clip-path="url(#p670d84bf75)" style="fill: none; stroke: #000000; stroke-width: 1.5"/>
   </g>
   <g id="LineCollection_4">
    <path d="M 335.890246 113.04 
L 505.397441 113.04 
" clip-path="url(#p670d84bf75)" style="fill: none; stroke: #000000; stroke-width: 1.5"/>
   </g>
   <g id="LineCollection_5">
    <path d="M 527.208052 245.34 
L 877.485844 245.34 
" clip-path="url(#p670d84bf75)" style="fill: none; stroke: #000000; stroke-width: 1.5"/>
   </g>
   <g id="LineCollection_6">
    <path d="M 436.081146 201.24 
L 643.084212 201.24 
" clip-path="url(#p670d84bf75)" style="fill: none; stroke: #000000; stroke-width: 1.5"/>
   </g>
   <g id="LineCollection_7">
    <path d="M 212.719247 68.94 
L 456.710785 68.94 
" clip-path="url(#p670d84bf75)" style="fill: none; stroke: #000000; stroke-width: 1.5"/>
   </g>
   <g id="LineCollection_8">
    <path d="M 285.956242 157.14 
L 574.969952 157.14 
" clip-path="url(#p670d84bf75)" style="fill: none; stroke: #000000; stroke-width: 1.5"/>
   </g>
   <g id="patch_3">
    <path d="M 177.210156 395.28 
L 177.210156 7.2 
" style="fill: none; stroke: #000000; stroke-width: 0.8; stroke-linejoin: miter; stroke-linecap: square"/>
   </g>
   <g id="patch_4">
    <path d="M 958.410156 395.28 
L 958.410156 7.2 
" style="fill: none; stroke: #000000; stroke-width: 0.8; stroke-linejoin: miter; stroke-linecap: square"/>
   </g>
   <g id="patch_5">
    <path d="M 177.210156 395.28 
L 958.410156 395.28 
" style="fill: none; stroke: #000000; stroke-width: 0.8; stroke-linejoin: miter; stroke-linecap: square"/>
   </g>
   <g id="patch_6">
    <path d="M 177.210156 7.2 
L 958.410156 7.2 
" style="fill: none; stroke: #000000; stroke-width: 0.8; stroke-linejoin: miter; stroke-linecap: square"/>
   </g>
   <g id="legend_1">
    <g id="patch_7">
     <path d="M 818.214062 62.165625 
L 947.910156 62.165625 
Q 950.910156 62.165625 950.910156 59.165625 
L 950.910156 17.7 
Q 950.910156 14.7 947.910156 14.7 
L 818.214062 14.7 
Q 815.214062 14.7 815.214062 17.7 
L 815.214062 59.165625 
Q 815.214062 62.165625 818.214062 62.165625 
z
" style="fill: #ffffff; opacity: 0.8; stroke: #cccccc; stroke-linejoin: miter"/>
    </g>
    <g id="line2d_18">
     <g>
      <use xlink:href="#mb8b40a5d46" x="836.214062" y="26.320312" style="stroke: #000000"/>
     </g>
    </g>
    <g id="text_15">
     <!-- Corrected -->
     <g transform="translate(863.214062 31.570312) scale(0.15 -0.15)">
      <defs>
       <path id="LiberationSans-6f" d="M 3291 1694 
Q 3291 806 2900 371 
Q 2509 -63 1766 -63 
Q 1413 -63 1134 43 
Q 856 150 664 369 
Q 472 588 370 917 
Q 269 1247 269 1694 
Q 269 3444 1784 3444 
Q 2178 3444 2464 3334 
Q 2750 3225 2933 3006 
Q 3116 2788 3203 2459 
Q 3291 2131 3291 1694 
z
M 2700 1694 
Q 2700 2088 2639 2344 
Q 2578 2600 2461 2753 
Q 2344 2906 2175 2967 
Q 2006 3028 1794 3028 
Q 1578 3028 1404 2964 
Q 1231 2900 1109 2745 
Q 988 2591 923 2334 
Q 859 2078 859 1694 
Q 859 1300 928 1042 
Q 997 784 1117 631 
Q 1238 478 1402 415 
Q 1566 353 1759 353 
Q 1975 353 2150 414 
Q 2325 475 2447 628 
Q 2569 781 2634 1040 
Q 2700 1300 2700 1694 
z
" transform="scale(0.015625)"/>
       <path id="LiberationSans-72" d="M 444 0 
L 444 2594 
Q 444 2700 442 2811 
Q 441 2922 437 3025 
Q 434 3128 431 3218 
Q 428 3309 425 3381 
L 956 3381 
Q 959 3309 964 3217 
Q 969 3125 973 3028 
Q 978 2931 979 2842 
Q 981 2753 981 2691 
L 994 2691 
Q 1053 2884 1120 3026 
Q 1188 3169 1278 3261 
Q 1369 3353 1494 3398 
Q 1619 3444 1797 3444 
Q 1866 3444 1928 3433 
Q 1991 3422 2025 3413 
L 2025 2897 
Q 1969 2913 1894 2920 
Q 1819 2928 1725 2928 
Q 1531 2928 1395 2840 
Q 1259 2753 1173 2598 
Q 1088 2444 1047 2230 
Q 1006 2016 1006 1763 
L 1006 0 
L 444 0 
z
" transform="scale(0.015625)"/>
       <path id="LiberationSans-65" d="M 863 1572 
Q 863 1306 917 1082 
Q 972 859 1086 698 
Q 1200 538 1378 448 
Q 1556 359 1806 359 
Q 2172 359 2392 506 
Q 2613 653 2691 878 
L 3184 738 
Q 3131 597 3036 455 
Q 2941 313 2781 198 
Q 2622 84 2383 10 
Q 2144 -63 1806 -63 
Q 1056 -63 664 384 
Q 272 831 272 1713 
Q 272 2188 390 2517 
Q 509 2847 715 3053 
Q 922 3259 1197 3351 
Q 1472 3444 1784 3444 
Q 2209 3444 2495 3306 
Q 2781 3169 2954 2926 
Q 3128 2684 3201 2356 
Q 3275 2028 3275 1647 
L 3275 1572 
L 863 1572 
z
M 2694 2003 
Q 2647 2538 2422 2783 
Q 2197 3028 1775 3028 
Q 1634 3028 1479 2983 
Q 1325 2938 1194 2822 
Q 1063 2706 972 2507 
Q 881 2309 869 2003 
L 2694 2003 
z
" transform="scale(0.015625)"/>
       <path id="LiberationSans-63" d="M 859 1706 
Q 859 1416 901 1172 
Q 944 928 1044 751 
Q 1144 575 1308 478 
Q 1472 381 1713 381 
Q 2013 381 2214 543 
Q 2416 706 2463 1044 
L 3031 1006 
Q 3003 797 2909 603 
Q 2816 409 2655 262 
Q 2494 116 2262 26 
Q 2031 -63 1728 -63 
Q 1331 -63 1053 71 
Q 775 206 601 442 
Q 428 678 350 998 
Q 272 1319 272 1694 
Q 272 2034 328 2295 
Q 384 2556 486 2751 
Q 588 2947 725 3080 
Q 863 3213 1023 3292 
Q 1184 3372 1362 3408 
Q 1541 3444 1722 3444 
Q 2006 3444 2228 3366 
Q 2450 3288 2611 3152 
Q 2772 3016 2872 2831 
Q 2972 2647 3013 2434 
L 2434 2391 
Q 2391 2672 2212 2837 
Q 2034 3003 1706 3003 
Q 1466 3003 1305 2923 
Q 1144 2844 1044 2683 
Q 944 2522 901 2278 
Q 859 2034 859 1706 
z
" transform="scale(0.015625)"/>
       <path id="LiberationSans-74" d="M 1731 25 
Q 1603 -9 1470 -29 
Q 1338 -50 1163 -50 
Q 488 -50 488 716 
L 488 2972 
L 97 2972 
L 97 3381 
L 509 3381 
L 675 4138 
L 1050 4138 
L 1050 3381 
L 1675 3381 
L 1675 2972 
L 1050 2972 
L 1050 838 
Q 1050 594 1129 495 
Q 1209 397 1406 397 
Q 1488 397 1564 409 
Q 1641 422 1731 441 
L 1731 25 
z
" transform="scale(0.015625)"/>
       <path id="LiberationSans-64" d="M 2566 544 
Q 2409 219 2151 78 
Q 1894 -63 1513 -63 
Q 872 -63 570 368 
Q 269 800 269 1675 
Q 269 3444 1513 3444 
Q 1897 3444 2153 3303 
Q 2409 3163 2566 2856 
L 2572 2856 
Q 2572 2888 2570 2955 
Q 2569 3022 2567 3095 
Q 2566 3169 2566 3234 
Q 2566 3300 2566 3328 
L 2566 4638 
L 3128 4638 
L 3128 697 
Q 3128 575 3129 462 
Q 3131 350 3134 256 
Q 3138 163 3141 95 
Q 3144 28 3147 0 
L 2609 0 
Q 2603 31 2598 89 
Q 2594 147 2589 222 
Q 2584 297 2581 380 
Q 2578 463 2578 544 
L 2566 544 
z
M 859 1694 
Q 859 1344 903 1094 
Q 947 844 1044 683 
Q 1141 522 1291 447 
Q 1441 372 1656 372 
Q 1878 372 2048 444 
Q 2219 516 2333 677 
Q 2447 838 2506 1097 
Q 2566 1356 2566 1731 
Q 2566 2091 2506 2339 
Q 2447 2588 2331 2741 
Q 2216 2894 2048 2961 
Q 1881 3028 1663 3028 
Q 1456 3028 1306 2956 
Q 1156 2884 1056 2725 
Q 956 2566 907 2311 
Q 859 2056 859 1694 
z
" transform="scale(0.015625)"/>
      </defs>
      <use xlink:href="#LiberationSans-43"/>
      <use xlink:href="#LiberationSans-6f" x="72.216797"/>
      <use xlink:href="#LiberationSans-72" x="127.832031"/>
      <use xlink:href="#LiberationSans-72" x="161.132812"/>
      <use xlink:href="#LiberationSans-65" x="194.433594"/>
      <use xlink:href="#LiberationSans-63" x="250.048828"/>
      <use xlink:href="#LiberationSans-74" x="300.048828"/>
      <use xlink:href="#LiberationSans-65" x="327.832031"/>
      <use xlink:href="#LiberationSans-64" x="383.447266"/>
     </g>
    </g>
    <g id="line2d_19">
     <g>
      <use xlink:href="#m0adc54ef04" x="836.214062" y="47.803125" style="fill: #808080; stroke: #808080; stroke-linejoin: miter"/>
     </g>
    </g>
    <g id="text_16">
     <!-- Uncorrected -->
     <g transform="translate(863.214062 53.053125) scale(0.15 -0.15)">
      <use xlink:href="#LiberationSans-55"/>
      <use xlink:href="#LiberationSans-6e" x="72.216797"/>
      <use xlink:href="#LiberationSans-63" x="127.832031"/>
      <use xlink:href="#LiberationSans-6f" x="177.832031"/>
      <use xlink:href="#LiberationSans-72" x="233.447266"/>
      <use xlink:href="#LiberationSans-72" x="266.748047"/>
      <use xlink:href="#LiberationSans-65" x="300.048828"/>
      <use xlink:href="#LiberationSans-63" x="355.664062"/>
      <use xlink:href="#LiberationSans-74" x="405.664062"/>
      <use xlink:href="#LiberationSans-65" x="433.447266"/>
      <use xlink:href="#LiberationSans-64" x="489.0625"/>
     </g>
    </g>
   </g>
  </g>
 </g>
 <defs>
  <clipPath id="p670d84bf75">
   <rect x="177.210156" y="7.2" width="781.2" height="388.08"/>
  </clipPath>
 </defs>
</svg>
